<svg class="__ds_svg __ds_svg_invision-bug" viewBox="0 0 100 100" width="100" preserveAspectRatio="xMinYMin meet" role="img" aria-label="InVision Bug Logo   Right Click to download Logo Kit" focusable="false" style="overflow:visible"><path fill="#F36" d="M0 50h50V0H0v50z"></path><path fill="#FFF" d="M17.5 15.7c1.6 0 2.9-1.2 2.9-2.9 0-1.6-1.3-2.9-2.9-2.9-1.6 0-2.9 1.2-2.9 2.9s1.3 2.9 2.9 2.9m-6 15.4c-.2.7-.3 1.5-.3 2.2 0 2.5 1.4 4.2 4.3 4.2 2.4 0 4.4-1.4 5.8-3.8l-.9 3.5h4.8l2.7-11c.7-2.8 2-4.2 4-4.2 1.6 0 2.6 1 2.6 2.6 0 .5 0 1-.2 1.5l-1.4 5.1c-.2.7-.3 1.5-.3 2.1 0 2.4 1.4 4.2 4.4 4.2 2.5 0 4.5-1.6 5.7-5.5l-1.9-.7c-.9 2.6-1.8 3.1-2.4 3.1-.6 0-1-.4-1-1.3 0-.4.1-.8.2-1.3l1.4-4.9c.3-1.2.5-2.2.5-3.1 0-3.7-2.2-5.6-4.9-5.6-2.5 0-5.1 2.3-6.4 4.7l.9-4.3h-7.3l-1 3.8h3.4L22 30.7c-1.7 3.7-4.7 3.7-5.1 3.7-.6-.1-1-.4-1-1.2 0-.5.1-1.1.3-2l3.2-12.8h-8.1l-1 3.8h3.4l-2.2 8.9z"></path></svg>
